<svg height="512pt" viewBox="-52 0 512 512.001" width="512pt" xmlns="http://www.w3.org/2000/svg"><path d="m22.941406 41.710938h362.882813v262.777343h-362.882813zm0 0" fill="#ddf5ff"/><path d="m144.425781 264.863281h-50.054687c-5.757813 0-10.425782-4.667969-10.425782-10.425781v-50.054688c0-5.757812 4.667969-10.429687 10.425782-10.429687h50.054687c5.757813 0 10.425781 4.671875 10.425781 10.429687v50.054688c0 5.757812-4.667968 10.425781-10.425781 10.425781zm0 0" fill="#ffd664"/><path d="m22.941406 41.710938v21.898437h319.089844c11.515625 0 20.851562 9.335937 20.851562 20.855469v220.023437h22.941407v-262.777343zm0 0" fill="#c1e9f4"/><path d="m398.339844 41.710938h-387.910156c-5.761719 0-10.429688-4.667969-10.429688-10.429688v-20.851562c0-5.761719 4.667969-10.429688 10.429688-10.429688h387.910156c5.757812 0 10.425781 4.667969 10.425781 10.429688v20.851562c0 5.761719-4.667969 10.429688-10.425781 10.429688zm0 0" fill="#7ae57d"/><path d="m398.339844 0h-20.855469c5.757813 0 10.425781 4.667969 10.425781 10.429688v20.851562c0 5.761719-4.667968 10.429688-10.425781 10.429688h20.855469c5.757812 0 10.425781-4.667969 10.425781-10.429688v-20.851562c0-5.761719-4.667969-10.429688-10.425781-10.429688zm0 0" fill="#66d166"/><path d="m398.339844 346.199219h-387.910156c-5.761719 0-10.429688-4.667969-10.429688-10.425781v-20.855469c0-5.761719 4.667969-10.429688 10.429688-10.429688h387.910156c5.757812 0 10.425781 4.667969 10.425781 10.429688v20.855469c0 5.757812-4.667969 10.425781-10.425781 10.425781zm0 0" fill="#7ae57d"/><path d="m398.339844 304.488281h-20.855469c5.757813 0 10.425781 4.667969 10.425781 10.429688v20.855469c0 5.757812-4.667968 10.425781-10.425781 10.425781h20.855469c5.757812 0 10.425781-4.667969 10.425781-10.425781v-20.855469c0-5.761719-4.667969-10.429688-10.425781-10.429688zm0 0" fill="#66d166"/><path d="m183.527344 501.570312v-155.371093h41.710937v155.375c0 5.757812-4.667969 10.425781-10.425781 10.425781h-20.855469c-5.761719 0-10.429687-4.667969-10.429687-10.429688zm0 0" fill="#ff933b"/><path d="m183.527344 501.570312v-155.371093h41.710937v155.375c0 5.757812-4.667969 10.425781-10.425781 10.425781h-20.855469c-5.761719 0-10.429687-4.667969-10.429687-10.429688zm0 0" fill="#7ae57d"/><path d="m183.527344 346.199219v16.683593h14.601562c5.757813 0 10.425782 4.671876 10.425782 10.429688v138.6875h6.257812c5.757812 0 10.429688-4.667969 10.429688-10.429688v-155.371093zm0 0" fill="#66d166"/><path d="m296.515625 505.824219-71.277344-159.625h41.710938l67.480469 151.121093c3.082031 6.898438-1.964844 14.679688-9.519532 14.679688h-18.871094c-4.113281 0-7.84375-2.417969-9.523437-6.175781zm0 0" fill="#7ae57d"/><path d="m260.324219 369.058594 63.828125 142.941406h.757812c7.554688 0 12.601563-7.78125 9.523438-14.679688l-67.484375-151.121093h-41.710938l7.449219 16.683593h18.113281c4.113281 0 7.84375 2.421876 9.523438 6.175782zm0 0" fill="#66d166"/><path d="m112.25 505.824219 71.277344-159.625h-41.710938l-67.480468 151.121093c-3.082032 6.898438 1.96875 14.679688 9.523437 14.679688h18.867187c4.117188 0 7.84375-2.417969 9.523438-6.175781zm0 0" fill="#7ae57d"/><path d="m141.816406 346.199219-7.449218 16.683593h8.058593c7.554688 0 12.601563 7.78125 9.523438 14.679688l-60.035157 134.4375h10.8125c4.117188 0 7.847657-2.417969 9.523438-6.175781l71.277344-159.625zm0 0" fill="#66d166"/><g fill="#636363"><path d="m324.824219 204.902344h-135.5625c-4.316407 0-7.820313-3.5-7.820313-7.820313 0-4.320312 3.503906-7.820312 7.820313-7.820312h135.5625c4.320312 0 7.820312 3.5 7.820312 7.820312 0 4.320313-3.5 7.820313-7.820312 7.820313zm0 0"/><path d="m324.824219 239.316406h-135.5625c-4.316407 0-7.820313-3.5-7.820313-7.820312 0-4.320313 3.503906-7.820313 7.820313-7.820313h135.5625c4.320312 0 7.820312 3.5 7.820312 7.820313 0 4.320312-3.5 7.820312-7.820312 7.820312zm0 0"/><path d="m293.539062 272.683594h-104.277343c-4.316407 0-7.820313-3.5-7.820313-7.820313 0-4.320312 3.503906-7.820312 7.820313-7.820312h104.277343c4.320313 0 7.824219 3.5 7.824219 7.820312 0 4.320313-3.503906 7.820313-7.824219 7.820313zm0 0"/><path d="m57.359375 167.367188c-3.042969 0-5.933594-1.78125-7.199219-4.757813-1.695312-3.972656.152344-8.566406 4.128906-10.261719l119.917969-51.09375c2.558594-1.09375 5.503907-.742187 7.738281.921875l49.398438 36.808594 107.320312-51.152344c3.894532-1.855469 8.566407-.203125 10.425782 3.695313 1.859375 3.898437.203125 8.566406-3.695313 10.425781l-111.574219 53.179687c-2.621093 1.25-5.710937.945313-8.039062-.789062l-49.578125-36.9375-115.785156 49.332031c-1 .425781-2.039063.628907-3.058594.628907zm0 0"/><path d="m333.691406 136.082031c-.753906 0-1.515625-.109375-2.273437-.335937-4.132813-1.253906-6.46875-5.621094-5.214844-9.753906l8.261719-27.269532-25.289063-8.976562c-4.074219-1.441406-6.203125-5.914063-4.757812-9.984375 1.445312-4.070313 5.917969-6.195313 9.988281-4.753907l32.324219 11.46875c3.9375 1.394532 6.082031 5.640626 4.871093 9.636719l-10.429687 34.410157c-1.023437 3.382812-4.125 5.558593-7.480469 5.558593zm0 0"/></g></svg>